<?xml version="1.0" encoding="utf-8"?>
<!-- Generator: Adobe Illustrator 25.0.1, SVG Export Plug-In . SVG Version: 6.00 Build 0)  -->
<svg version="1.1" xmlns="http://www.w3.org/2000/svg" xmlns:xlink="http://www.w3.org/1999/xlink" x="0px" y="0px"
	 viewBox="0 0 430.62 184.98" style="enable-background:new 0 0 430.62 184.98;" xml:space="preserve">
<style type="text/css">
	.st0{fill:#488769;}
	.st1{fill:#C1DFB5;}
	.st2{fill:#C1DFB5;stroke:#C1DFB5;stroke-width:1.9048;stroke-miterlimit:10;}
	.st3{fill:none;stroke:#C1DFB5;stroke-width:5;stroke-linecap:round;stroke-miterlimit:10;}
	.st4{fill:none;stroke:#C1DFB5;stroke-width:8;stroke-linecap:round;stroke-miterlimit:10;}
</style>
<g id="Layer_1">
</g>
<g id="letters">
	<g>
		<path class="st0" d="M37.12,46.83l-4.34,8.5c-1.39-0.46-3.07-0.69-5.03-0.69c-5.32,0-9.69,1.79-13.09,5.38
			c-3.41,3.59-5.12,7.87-5.12,12.83v45.1H0V47l7.98,6.42c5.32-5.55,11.91-8.33,19.77-8.33C31.22,45.1,34.34,45.68,37.12,46.83z"/>
		<path class="st0" d="M81.43,45.1c10.41,0,19.25,3.64,26.54,10.93c7.28,7.29,10.93,16.13,10.93,26.54
			c0,10.18-3.64,18.97-10.93,26.36c-7.29,7.4-16.13,11.1-26.54,11.1c-10.18,0-18.96-3.7-26.36-11.1c-7.4-7.4-11.1-16.19-11.1-26.36
			c0-10.41,3.7-19.25,11.1-26.54C62.47,48.74,71.26,45.1,81.43,45.1z M81.43,54.64c-7.86,0-14.48,2.69-19.86,8.07
			s-8.07,12-8.07,19.86c0,7.87,2.69,14.48,8.07,19.86s12,8.07,19.86,8.07c7.75,0,14.34-2.72,19.77-8.15
			c5.43-5.43,8.15-12.02,8.15-19.77c0-7.75-2.72-14.34-8.15-19.77C95.77,57.35,89.18,54.64,81.43,54.64z"/>
		<path class="st0" d="M171.45,45.1c10.41,0,19.25,3.64,26.54,10.93c7.29,7.29,10.93,16.13,10.93,26.54
			c0,10.18-3.64,18.97-10.93,26.36c-7.28,7.4-16.13,11.1-26.54,11.1c-10.18,0-18.97-3.7-26.36-11.1c-7.4-7.4-11.1-16.19-11.1-26.36
			c0-10.41,3.7-19.25,11.1-26.54C152.49,48.74,161.28,45.1,171.45,45.1z M171.45,54.64c-7.87,0-14.48,2.69-19.86,8.07
			s-8.07,12-8.07,19.86c0,7.87,2.69,14.48,8.07,19.86s12,8.07,19.86,8.07c7.75,0,14.34-2.72,19.77-8.15
			c5.43-5.43,8.15-12.02,8.15-19.77c0-7.75-2.72-14.34-8.15-19.77C185.79,57.35,179.2,54.64,171.45,54.64z"/>
		<path class="st1" d="M236.84,56.54h-12.83V47h12.83V27.06l9.54-4.68V47h12.66v9.54h-12.66v61.4h-9.54V56.54z"/>
		<path class="st0" d="M332.11,95.57l8.33,4.68c-3.12,5.9-7.63,10.67-13.53,14.31c-5.9,3.64-12.37,5.46-19.43,5.46
			c-10.18,0-18.97-3.7-26.36-11.1c-7.4-7.4-11.1-16.19-11.1-26.36c0-10.41,3.7-19.25,11.1-26.54c7.4-7.29,16.19-10.93,26.36-10.93
			c6.47,0,12.58,1.62,18.3,4.86c5.72,3.24,10.15,7.34,13.27,12.31l-48.39,42.67c4.86,3.7,10.46,5.55,16.82,5.55
			c5.32,0,10.15-1.33,14.48-3.99C326.3,103.84,329.68,100.2,332.11,95.57z M284.23,98.17l41.45-36.77
			c-5.2-4.51-11.27-6.76-18.21-6.76c-7.86,0-14.48,2.69-19.86,8.07s-8.07,12-8.07,19.86C279.55,88.23,281.11,93.43,284.23,98.17z"/>
		<path class="st0" d="M393.16,45.1c11.1,0,20.41,4.16,27.92,12.49V0h9.54v117.94l-10.41-9.54c-7.52,7.75-16.54,11.62-27.06,11.62
			c-10.18,0-18.97-3.7-26.36-11.1c-7.4-7.4-11.1-16.19-11.1-26.36c0-10.41,3.7-19.25,11.1-26.54
			C374.19,48.74,382.98,45.1,393.16,45.1z M393.16,54.64c-7.86,0-14.48,2.69-19.86,8.07s-8.07,12-8.07,19.86
			c0,7.87,2.69,14.48,8.07,19.86s12,8.07,19.86,8.07c7.75,0,14.34-2.72,19.77-8.15c5.43-5.43,8.15-12.02,8.15-19.77
			c0-7.75-2.72-14.34-8.15-19.77C407.5,57.35,400.9,54.64,393.16,54.64z"/>
	</g>
</g>
<g id="roots">
	<path class="st1" d="M185.01,146.41c-0.74,0-1.5-0.21-2.17-0.64c-1.86-1.2-2.39-3.67-1.19-5.53c8.79-13.61,19.08-14.91,32.11-16.55
		c1.28-0.16,2.6-0.33,3.97-0.51l0.39-0.05c5.67-0.76,11.03-1.48,14.93-4.62c2.82-2.28,3.11-3.36,4.05-6.94
		c0.17-0.67,0.36-1.38,0.58-2.16c0.6-2.12,2.81-3.36,4.94-2.76c2.13,0.6,3.36,2.81,2.76,4.94c-0.2,0.73-0.38,1.39-0.54,2.01
		c-1.06,4.03-1.89,7.21-6.77,11.14c-5.64,4.55-12.68,5.49-18.89,6.33l-0.39,0.05c-1.39,0.19-2.73,0.36-4.03,0.52
		c-12.65,1.6-19.62,2.48-26.39,12.96C187.61,145.77,186.32,146.41,185.01,146.41z"/>
	<path class="st1" d="M297.42,158.38c-0.04,0-0.08,0-0.12,0c-2.21-0.07-3.94-1.91-3.88-4.12c0.47-15.91-5.88-21.87-26.15-24.49
		c-0.87-0.11-1.74-0.22-2.6-0.33c-12.69-1.58-27.08-3.37-27.8-21.46c-0.09-2.21,1.63-4.07,3.84-4.16c2.18-0.08,4.07,1.63,4.16,3.84
		c0.43,10.82,7.05,12.12,20.79,13.83c0.87,0.11,1.75,0.22,2.64,0.33c17.64,2.29,33.85,7.83,33.11,32.67
		C301.35,156.67,299.57,158.38,297.42,158.38z"/>
	<path class="st1" d="M210.95,157.05c-1.85,0-3.51-1.29-3.91-3.17c-1.47-6.92,3.31-10.1,6.17-11.99c0.78-0.52,1.52-1.01,2.1-1.5
		c3.74-3.22,3.72-4.84,3.63-11.64l0-0.25c-0.03-2.21,1.74-4.02,3.95-4.05c0.02,0,0.04,0,0.06,0c2.18,0,3.97,1.75,4,3.95l0,0.25
		c0.1,7.32,0.17,12.15-6.41,17.81c-0.96,0.82-1.98,1.51-2.89,2.11c-3.01,2-3.05,2.32-2.77,3.67c0.46,2.16-0.92,4.28-3.08,4.74
		C211.5,157.02,211.22,157.05,210.95,157.05z"/>
	<path class="st1" d="M240.88,184.99c-1.53,0-2.99-0.88-3.65-2.37c-3.34-7.45-2.38-30.93,0.76-38.46c1.15-2.76,3.22-4.5,5.04-6.03
		c1.18-0.99,2.29-1.92,2.75-2.85c0.86-1.72,0.77-2.85,0.59-5.09c-0.09-1.09-0.19-2.33-0.18-3.79c0.02-2.2,1.81-3.96,4-3.96
		c0.01,0,0.03,0,0.04,0c2.21,0.02,3.98,1.83,3.96,4.04c-0.01,1.09,0.07,2.09,0.15,3.06c0.21,2.62,0.46,5.59-1.4,9.31
		c-1.21,2.42-3.1,4-4.77,5.41c-1.23,1.03-2.4,2.01-2.8,2.98c-2.47,5.92-3.03,27.23-0.84,32.11c0.9,2.02,0,4.38-2.02,5.29
		C241.98,184.87,241.43,184.99,240.88,184.99z"/>
	<path class="st1" d="M265.49,169.02c-0.14,0-0.28-0.01-0.42-0.02c-9.01-0.94-8.49-9.49-8.26-13.14c0.07-1.12,0.14-2.27,0.05-2.99
		c-0.63-5.19-2.54-5.97-10.55-8.44l-0.63-0.19c-2.11-0.65-3.29-2.89-2.64-5c0.65-2.11,2.89-3.29,5-2.64l0.63,0.19
		c7.97,2.46,14.85,4.58,16.13,15.12c0.18,1.45,0.08,2.97-0.01,4.44c-0.08,1.28-0.24,3.94,0.21,4.47c0.04,0.04,0.31,0.17,0.9,0.23
		c2.2,0.23,3.79,2.19,3.57,4.39C269.25,167.49,267.52,169.02,265.49,169.02z"/>
</g>
</svg>
