<?xml version="1.0" encoding="utf-8"?>
<!-- Generator: Adobe Illustrator 25.0.1, SVG Export Plug-In . SVG Version: 6.00 Build 0)  -->
<svg version="1.1" xmlns="http://www.w3.org/2000/svg" xmlns:xlink="http://www.w3.org/1999/xlink" x="0px" y="0px"
	 viewBox="0 0 430.62 184.98" style="enable-background:new 0 0 430.62 184.98;" xml:space="preserve">
<style type="text/css">
	.st0{fill:#488769;}
	.st1{fill:#C1DFB5;}
	.st2{fill:#C1DFB5;stroke:#C1DFB5;stroke-width:1.9048;stroke-miterlimit:10;}
	.st3{fill:none;stroke:#C1DFB5;stroke-width:5;stroke-linecap:round;stroke-miterlimit:10;}
	.st4{fill:none;stroke:#C1DFB5;stroke-width:8;stroke-linecap:round;stroke-miterlimit:10;}
</style>
<g id="Layer_1">
</g>
<g id="letters">
	<g>
		<path class="st0" d="M37.12,46.83l-4.34,8.5c-1.39-0.46-3.07-0.69-5.03-0.69c-5.32,0-9.69,1.79-13.09,5.38
			c-3.41,3.59-5.12,7.87-5.12,12.83v45.1H0V47l7.98,6.42c5.32-5.55,11.91-8.33,19.77-8.33C31.22,45.1,34.34,45.68,37.12,46.83z"/>
		<path class="st0" d="M81.43,45.1c10.41,0,19.25,3.64,26.54,10.93c7.28,7.29,10.93,16.13,10.93,26.54
			c0,10.18-3.64,18.97-10.93,26.36c-7.29,7.4-16.13,11.1-26.54,11.1c-10.18,0-18.96-3.7-26.36-11.1c-7.4-7.4-11.1-16.19-11.1-26.36
			c0-10.41,3.7-19.25,11.1-26.54C62.47,48.74,71.26,45.1,81.43,45.1z M81.43,54.64c-7.86,0-14.48,2.69-19.86,8.07
			s-8.07,12-8.07,19.86c0,7.87,2.69,14.48,8.07,19.86s12,8.07,19.86,8.07c7.75,0,14.34-2.72,19.77-8.15
			c5.43-5.43,8.15-12.02,8.15-19.77c0-7.75-2.72-14.34-8.15-19.77C95.77,57.35,89.18,54.64,81.43,54.64z"/>
		<path class="st0" d="M171.45,45.1c10.41,0,19.25,3.64,26.54,10.93c7.29,7.29,10.93,16.13,10.93,26.54
			c0,10.18-3.64,18.97-10.93,26.36c-7.28,7.4-16.13,11.1-26.54,11.1c-10.18,0-18.97-3.7-26.36-11.1c-7.4-7.4-11.1-16.19-11.1-26.36
			c0-10.41,3.7-19.25,11.1-26.54C152.49,48.74,161.28,45.1,171.45,45.1z M171.45,54.64c-7.87,0-14.48,2.69-19.86,8.07
			s-8.07,12-8.07,19.86c0,7.87,2.69,14.48,8.07,19.86s12,8.07,19.86,8.07c7.75,0,14.34-2.72,19.77-8.15
			c5.43-5.43,8.15-12.02,8.15-19.77c0-7.75-2.72-14.34-8.15-19.77C185.79,57.35,179.2,54.64,171.45,54.64z"/>
		<path class="st1" d="M236.84,56.54h-12.83V47h12.83V27.06l9.54-4.68V47h12.66v9.54h-12.66v61.4h-9.54V56.54z"/>
		<path class="st0" d="M332.11,95.57l8.33,4.68c-3.12,5.9-7.63,10.67-13.53,14.31c-5.9,3.64-12.37,5.46-19.43,5.46
			c-10.18,0-18.97-3.7-26.36-11.1c-7.4-7.4-11.1-16.19-11.1-26.36c0-10.41,3.7-19.25,11.1-26.54c7.4-7.29,16.19-10.93,26.36-10.93
			c6.47,0,12.58,1.62,18.3,4.86c5.72,3.24,10.15,7.34,13.27,12.31l-48.39,42.67c4.86,3.7,10.46,5.55,16.82,5.55
			c5.32,0,10.15-1.33,14.48-3.99C326.3,103.84,329.68,100.2,332.11,95.57z M284.23,98.17l41.45-36.77
			c-5.2-4.51-11.27-6.76-18.21-6.76c-7.86,0-14.48,2.69-19.86,8.07s-8.07,12-8.07,19.86C279.55,88.23,281.11,93.43,284.23,98.17z"/>
		<path class="st0" d="M393.16,45.1c11.1,0,20.41,4.16,27.92,12.49V0h9.54v117.94l-10.41-9.54c-7.52,7.75-16.54,11.62-27.06,11.62
			c-10.18,0-18.97-3.7-26.36-11.1c-7.4-7.4-11.1-16.19-11.1-26.36c0-10.41,3.7-19.25,11.1-26.54
			C374.19,48.74,382.98,45.1,393.16,45.1z M393.16,54.64c-7.86,0-14.48,2.69-19.86,8.07s-8.07,12-8.07,19.86
			c0,7.87,2.69,14.48,8.07,19.86s12,8.07,19.86,8.07c7.75,0,14.34-2.72,19.77-8.15c5.43-5.43,8.15-12.02,8.15-19.77
			c0-7.75-2.72-14.34-8.15-19.77C407.5,57.35,400.9,54.64,393.16,54.64z"/>
	</g>
</g>
<g id="roots">
	<path class="st4" d="M241.52,110.49c-1.47,5.19-1.47,7.5-5.97,11.13c-4.87,3.93-11.12,4.7-17.3,5.53
		c-15.06,2.02-24.68,2.01-33.25,15.27"/>
	<path class="st4" d="M240.87,107.83c0.62,15.69,13.04,16.18,26.91,17.98c19.26,2.5,30.23,8.38,29.63,28.58"/>
	<path class="st4" d="M222.92,128.44c0.1,7.28,0.2,10.48-5.01,14.97c-3.21,2.76-8.15,4.03-6.96,9.64"/>
	<path class="st4" d="M250.19,126.45c-0.04,4.32,1.1,6.76-0.83,10.62c-1.73,3.47-6.18,5.03-7.68,8.63
		c-2.85,6.84-3.53,29.18-0.8,35.28"/>
	<path class="st4" d="M246.87,140.41c8.12,2.51,12.97,3.8,13.97,11.97c0.52,4.31-2.28,11.92,4.66,12.64"/>
</g>
</svg>
